<?xml version="1.0" encoding="UTF-8" standalone="no"?>
<!-- Created with Inkscape (http://www.inkscape.org/) -->

<svg
   width="120.73258mm"
   height="17.208246mm"
   viewBox="0 0 120.73258 17.208246"
   version="1.1"
   id="svg828"
   inkscape:version="1.1 (c68e22c387, 2021-05-23)"
   sodipodi:docname="associated links.svg"
   xmlns:inkscape="http://www.inkscape.org/namespaces/inkscape"
   xmlns:sodipodi="http://sodipodi.sourceforge.net/DTD/sodipodi-0.dtd"
   xmlns="http://www.w3.org/2000/svg"
   xmlns:svg="http://www.w3.org/2000/svg">
  <sodipodi:namedview
     id="namedview830"
     pagecolor="#ffffff"
     bordercolor="#666666"
     borderopacity="1.0"
     inkscape:pageshadow="2"
     inkscape:pageopacity="0.0"
     inkscape:pagecheckerboard="0"
     inkscape:document-units="mm"
     showgrid="false"
     fit-margin-top="0"
     fit-margin-left="0"
     fit-margin-right="0"
     fit-margin-bottom="0"
     inkscape:zoom="2.1215981"
     inkscape:cx="226.71589"
     inkscape:cy="59.624865"
     inkscape:window-width="1920"
     inkscape:window-height="1027"
     inkscape:window-x="-8"
     inkscape:window-y="-8"
     inkscape:window-maximized="1"
     inkscape:current-layer="layer1" />
  <defs
     id="defs825" />
  <g
     inkscape:label="Layer 1"
     inkscape:groupmode="layer"
     id="layer1"
     transform="translate(-58.661939,-139.17386)">
    <path
       style="fill:#2fee89;stroke:none;stroke-width:0.264583"
       d="m 116.72,139.17386 -0.79375,4.49792 c -3.05012,0 -3.65628,1.32255 -0.26458,1.32292 0,2.65281 -0.81862,10.37566 2.38125,11.37708 0.30189,-3.3179 -2.34315,-7.50051 -0.89879,-10.80873 0.63156,-1.44614 2.72256,-0.40069 3.54462,-1.89127 l -3.43958,-0.26458 c 0.11324,-1.43576 0.95938,-3.39206 -0.52917,-4.23334 m 30.95625,16.93334 c 0.68024,-0.11385 1.19962,-0.24982 1.14671,-1.07384 -0.25797,-4.01339 -1.16153,-7.49803 -0.85858,-11.62616 0.0675,-0.92123 0.83106,-3.00241 0.22834,-3.79359 -0.97896,-1.28512 -1.48908,2.85553 -1.53009,3.26442 l -0.26432,2.64583 c -0.14446,1.51802 0.0291,2.99308 0.17463,4.49792 0.20426,2.11082 0.62997,4.02106 1.10331,6.08542 m 15.61042,0 c 1.25121,-0.6899 1.05807,-1.88278 1.05833,-3.175 1.85843,0.8677 3.58167,1.9269 5.55599,2.55069 0.4744,0.14988 2.59609,0.36036 1.62718,-0.74515 -1.24645,-1.42224 -5.91026,-1.25196 -6.155,-3.66906 -0.18309,-1.80922 3.28586,-3.9624 4.04866,-5.53971 0.90276,-1.86632 -1.27794,-0.67416 -1.84997,0 l -1.11019,1.31781 c -0.61251,0.71125 -1.21629,1.42634 -1.85209,2.11667 l -0.52916,-9.525 c -1.39489,0.76911 -1.15041,2.54825 -0.98293,3.96875 0.48048,4.07207 -0.96097,8.80927 0.18918,12.7 m -26.19375,-7.9375 h -0.26459 c -0.36353,-0.92208 -0.73527,-1.87257 -1.41287,-2.61705 -3.61818,-3.97473 -5.80337,2.27155 -5.00142,5.26288 0.73475,2.74106 2.58868,5.07738 5.62054,4.99258 0.75989,-0.0212 2.09762,0.3134 2.48524,-0.5453 0.48127,-1.06649 -0.10346,-3.01123 -0.10399,-4.1827 v -11.37708 c -2.33415,0.4053 -1.32291,6.55518 -1.32291,8.46667 m -35.71875,-6.61459 0.26458,1.32292 c 0.96441,-0.55414 0.80036,-1.13644 -0.26458,-1.32292 m 50.00625,1.32292 0.26458,-1.05833 c -1.18216,-0.18233 -1.40361,0.67974 -0.26458,1.05833 m -91.545837,3.96875 c 1.228725,-0.18878 1.99644,-1.25542 3.175,-1.44399 2.027635,-0.32438 2.710207,2.34566 2.910417,3.82524 -0.724323,-0.61127 -1.4428,-1.19563 -2.38125,-1.43989 -6.191787,-1.61168 -6.618084,9.84808 -0.529167,7.76089 1.104688,-0.37867 1.961727,-1.1771 2.910417,-1.82308 l 0.264583,2.11666 c 1.79713,-0.2999 1.323023,-2.25835 1.322917,-3.70416 -1.59e-4,-2.38332 -0.06146,-5.56485 -1.90844,-7.34791 -1.994138,-1.92513 -5.412518,-0.55512 -5.764477,2.05624 m 26.459392,-2.65073 c -4.769273,1.8048 -4.245768,13.88393 2.115609,11.45016 3.341952,-1.27857 3.347508,-6.44935 1.792552,-9.06401 -0.713052,-1.19947 -2.332302,-2.98255 -3.908161,-2.38615 m 13.492692,7.14865 c -1.361545,0.69553 -1.930135,2.51547 -3.439848,2.96309 -1.126066,0.33393 -2.056077,-0.72856 -2.493962,-1.64039 -0.73369,-1.52694 -0.546894,-3.81402 0.229923,-5.29145 1.041664,-1.98123 2.501371,-2.08421 3.322637,0 2.063486,-0.68538 0.36248,-3.37405 -1.323181,-3.38223 -4.876006,-0.0237 -5.280025,9.66611 -1.586177,11.53695 2.491581,1.26196 5.917671,-1.58919 5.290608,-4.18597 m 5.027083,-4.49792 c 1.22872,-0.18878 1.99655,-1.25542 3.175,-1.44399 2.0275,-0.32438 2.71013,2.34566 2.91042,3.82524 -0.72443,-0.61127 -1.44278,-1.19563 -2.38125,-1.43989 -6.19178,-1.61168 -6.61803,9.84808 -0.52917,7.76089 1.10464,-0.37867 1.96162,-1.1771 2.91042,-1.82308 l 0.26458,2.11666 c 1.79705,-0.2999 1.32292,-2.25835 1.32292,-3.70416 -2.7e-4,-2.38332 -0.0614,-5.56485 -1.90844,-7.34791 -1.99417,-1.92513 -5.41258,-0.55512 -5.76448,2.05624 m 24.60625,5.55625 c -2.56355,-0.5915 -4.31562,4.32758 -6.61458,0 2.45507,-0.58314 4.43785,-2.03541 5.26388,-4.49792 0.42519,-1.26751 0.40534,-3.17222 -1.05833,-3.77134 -1.67825,-0.68689 -3.34142,0.91932 -4.17698,2.18405 -1.45124,2.19692 -2.35505,5.63402 -0.65061,7.92565 2.19763,2.95495 6.32275,1.23563 7.23662,-1.84044 m 23.8125,-8.46667 c -0.79481,2.68915 -2.6e-4,6.42118 0,9.26042 0,0.41341 -0.17383,3.2879 0.91414,2.59929 0.66013,-0.4178 0.48048,-2.16942 0.64664,-2.86387 0.46514,-1.94345 1.76953,-5.9041 3.9669,-6.52312 0.85487,-0.24085 1.1041,0.89561 1.22846,1.49624 0.41989,2.02481 0.35004,4.03387 0.38893,6.085 0.007,0.40203 0.24871,2.37305 1.0549,1.41256 0.58552,-0.69784 0.2667,-2.41459 0.2667,-3.26443 -2.7e-4,-2.42729 -0.26882,-9.80618 -4.47331,-6.66645 -0.50589,0.37794 -0.89535,0.86294 -1.25228,1.37867 -0.52043,0.75171 -0.89693,1.505 -1.15358,2.37736 -0.49027,-1.65492 0.0878,-4.36777 -1.5875,-5.29167 m -84.666667,7.67292 c -0.811636,2.77281 2.199958,6.0947 4.998509,4.23087 4.747048,-3.1615 -3.242681,-6.61749 -2.902665,-9.24245 0.377614,-2.91513 3.124491,1.65777 3.697844,0.86768 1.578742,-2.17562 -3.212915,-4.46845 -4.840288,-2.17731 -2.126695,2.9941 3.332348,5.12786 3.837675,7.64391 0.377587,1.88 -1.742016,2.27902 -2.87856,1.2186 -0.871379,-0.81299 -0.826956,-1.94472 -1.912515,-2.5413 m 7.408334,0 c -0.811636,2.77281 2.199957,6.0947 4.998508,4.23087 4.747155,-3.1615 -3.24268,-6.61749 -2.902664,-9.24245 0.377613,-2.91513 3.124491,1.65777 3.697843,0.86768 1.578742,-2.17562 -3.212915,-4.46845 -4.840288,-2.17731 -2.126694,2.9941 3.332348,5.12786 3.837676,7.64391 0.377587,1.88003 -1.742017,2.27902 -2.878561,1.2186 -0.871379,-0.81299 -0.826982,-1.94472 -1.912514,-2.5413 m 97.631253,0 c -2.90354,1.61692 1.77615,6.00649 4.44129,4.20965 3.76053,-2.53523 -1.40705,-6.23993 -2.69054,-8.17922 -0.60934,-0.9203 -0.18945,-2.29844 1.13188,-1.89066 1.2409,0.38296 0.99642,1.91095 2.40904,2.15606 -0.0106,-1.17988 -0.0656,-2.47345 -1.11496,-3.24318 -1.4605,-1.07159 -4.09734,-0.22765 -4.32541,1.65672 -0.36089,2.98193 3.76714,4.02764 4.25186,6.61333 0.24553,1.31075 -1.1012,2.24809 -2.24605,1.61365 -1.12131,-0.62127 -1.43034,-1.83148 -1.85711,-2.93635 m -72.08732,-6.56804 c -1.711853,1.07391 -0.3429,7.06151 -0.15716,8.68471 0.0508,0.44447 0.23653,2.682 1.19089,2.07012 0.64849,-0.41595 0.22648,-1.73937 0.14525,-2.33471 -0.33152,-2.42797 -0.35586,-4.71942 -0.29342,-7.14253 0.0109,-0.41624 -0.13203,-1.7504 -0.88556,-1.27759 m 49.59773,-0.31113 c -2.08438,1.1493 -1.03716,6.41774 -0.80697,8.46667 0.0754,0.6717 0.0249,2.19011 0.68553,2.59929 1.34382,0.8323 0.55695,-3.49221 0.49848,-3.92221 -0.13177,-0.96776 -0.11245,-1.93579 -0.11245,-2.91041 0,-1.41267 0.13785,-2.87174 -0.26459,-4.23334 m -28.575,6.35 c 0.26961,-1.30307 1.6764,-6.67226 3.88435,-5.5201 0.84296,0.43984 0.49636,1.67719 0.20796,2.3451 -0.7612,1.76165 -2.28732,2.74228 -4.09231,3.175 M 86.84669,145.6778 c 3.451225,-0.4444 4.258469,8.20716 0.504296,8.77739 -4.210685,0.63955 -3.585448,-8.38062 -0.504296,-8.77739 m 46.02427,0.2409 c 2.37146,-0.47432 3.36021,4.34568 3.72242,5.95516 0.1868,0.82995 0.52547,2.22346 -0.59795,2.52048 -2.98186,0.78838 -4.44236,-3.53261 -4.45744,-5.69548 -0.008,-1.06778 0.0148,-2.51648 1.33297,-2.78016 m -70.654095,3.15397 c 3.649821,-0.70692 3.690382,4.34816 0.263551,5.0769 -3.539278,0.75266 -3.20971,-4.50628 -0.263551,-5.0769 m 44.979195,0 c 3.64966,-0.70692 3.69041,4.34816 0.26352,5.0769 -3.53933,0.75266 -3.20966,-4.50628 -0.26352,-5.0769 z"
       id="path914" />
  </g>
</svg>
