<?xml version="1.0" encoding="UTF-8" standalone="no"?>
<svg
   viewBox="0 0 162 162"
   version="1.1"
   id="svg15"
   sodipodi:docname="youtube.svg"
   width="162"
   height="162"
   inkscape:version="1.1 (c68e22c387, 2021-05-23)"
   xmlns:inkscape="http://www.inkscape.org/namespaces/inkscape"
   xmlns:sodipodi="http://sodipodi.sourceforge.net/DTD/sodipodi-0.dtd"
   xmlns="http://www.w3.org/2000/svg"
   xmlns:svg="http://www.w3.org/2000/svg">
  <defs
     id="defs19" />
  <sodipodi:namedview
     id="namedview17"
     pagecolor="#ffffff"
     bordercolor="#666666"
     borderopacity="1.0"
     inkscape:pageshadow="2"
     inkscape:pageopacity="0.0"
     inkscape:pagecheckerboard="0"
     showgrid="false"
     fit-margin-top="0"
     fit-margin-left="0"
     fit-margin-right="0"
     fit-margin-bottom="0"
     inkscape:zoom="2.1504065"
     inkscape:cx="107.42155"
     inkscape:cy="55.10586"
     inkscape:window-width="1920"
     inkscape:window-height="1147"
     inkscape:window-x="1912"
     inkscape:window-y="-8"
     inkscape:window-maximized="1"
     inkscape:current-layer="svg15" />
  <path
     d="m 156.66852,43.141588 a 19.6,19.6 0 0 0 -13.8,-13.8 c -12.1,-3.3 -60.800007,-3.3 -60.800007,-3.3 0,0 -48.7,0.1 -60.8,3.4 a 19.6,19.6 0 0 0 -13.8000001,13.8 c -3.66,21.5 -5.08,54.26 0.1,74.900002 a 19.6,19.6 0 0 0 13.8000001,13.8 c 12.1,3.3 60.8,3.3 60.8,3.3 0,0 48.700007,0 60.800007,-3.3 a 19.6,19.6 0 0 0 13.8,-13.8 c 3.86,-21.530002 5.05,-54.270002 -0.1,-75.000002 z"
     fill="#ff0000"
     id="path2" />
  <path
     fill="#ffffff"
     d="m 66.568513,104.04159 40.400007,-23.400002 -40.400007,-23.4 z"
     id="path4" />
  <g
     fill="#282828"
     id="g11"
     transform="translate(-1.8167423,-0.4)" />
</svg>
